<?xml version="1.0" ?><!DOCTYPE svg  PUBLIC '-//W3C//DTD SVG 1.1//EN'  'http://www.w3.org/Graphics/SVG/1.1/DTD/svg11.dtd'><svg enable-background="new 0 0 512 512" height="512px" id="Layer_1" version="1.1" viewBox="0 0 512 512" width="512px" xml:space="preserve" xmlns="http://www.w3.org/2000/svg" xmlns:xlink="http://www.w3.org/1999/xlink"><g id="twitter"><path d="M415,177.721c-10.697,4.755-22.209,7.962-34.288,9.397c12.333-7.383,21.79-19.079,26.25-33.03   c-11.536,6.845-24.306,11.814-37.909,14.495c-10.886-11.6-26.403-18.854-43.573-18.854c-32.964,0-59.693,26.727-59.693,59.699   c0,4.672,0.526,9.226,1.548,13.603c-49.616-2.493-93.609-26.255-123.053-62.374c-5.139,8.812-8.081,19.066-8.081,30.017   c0,20.709,10.538,38.984,26.556,49.687c-9.781-0.313-18.99-3-27.041-7.472c-0.006,0.248-0.006,0.502-0.006,0.755   c0,28.919,20.579,53.041,47.891,58.535c-5.009,1.359-10.283,2.092-15.729,2.092c-3.851,0-7.591-0.373-11.235-1.075   c7.602,23.715,29.646,40.981,55.765,41.458c-20.431,16.013-46.166,25.559-74.14,25.559c-4.814,0-9.569-0.284-14.241-0.839   c26.426,16.946,57.802,26.822,91.512,26.822c109.811,0,169.852-90.963,169.852-169.852c0-2.588-0.053-5.168-0.165-7.731   C396.879,200.213,407.002,189.694,415,177.721z" fill="#469AE9"/><path d="M254.5,16.5c-131.996,0-239,107.004-239,239s107.004,239,239,239s239-107.004,239-239   S386.496,16.5,254.5,16.5z M412.892,413.892C370.584,456.2,314.333,479.5,254.5,479.5c-59.833,0-116.084-23.3-158.392-65.608   C53.8,371.584,30.5,315.333,30.5,255.5c0-59.833,23.3-116.084,65.608-158.392C138.416,54.8,194.667,31.5,254.5,31.5   c59.833,0,116.084,23.3,158.392,65.608C455.2,139.416,478.5,195.667,478.5,255.5C478.5,315.333,455.2,371.584,412.892,413.892z" fill="#469AE9"/></g></svg>